<svg xmlns="http://www.w3.org/2000/svg" viewBox="0 0 54.15 54.26"><defs><style>.cls-1{fill:#230835;}</style></defs><g id="Layer_2" data-name="Layer 2"><g id="Background"><path class="cls-1" d="M39,17.65v-8c-3.21.16-6.38,0-9.4.55-4.37.84-7.27,4.86-7.39,9.47-.06,2.3,0,4.61,0,7.12H15.26V35H22v19.3c-3.75-.18-7.52,0-11.13-.64A13.49,13.49,0,0,1,.08,40.4q-.15-13.32,0-26.65A14,14,0,0,1,14,0Q27.07,0,40.13,0a14,14,0,0,1,14,13.87q.1,13.23,0,26.46A13.93,13.93,0,0,1,40.54,54.07c-3.19.08-6.38,0-9.68,0V34.9c1.83,0,3.54.08,5.23,0a1.66,1.66,0,0,0,1.21-1c.45-2.25.73-4.54,1.11-7.05H30.83c0-2.22-.14-4.23,0-6.21.16-1.83,1.45-2.84,3.43-2.92C35.82,17.59,37.34,17.65,39,17.65Z"/></g></g></svg>