<svg xmlns="http://www.w3.org/2000/svg" viewBox="0 0 54.11 54.11"><defs><style>.cls-1{fill:#230835;}</style></defs><g id="Layer_2" data-name="Layer 2"><g id="Layer_1-2" data-name="Layer 1"><path class="cls-1" d="M0,27c0-4.43,0-8.87,0-13.31A13.35,13.35,0,0,1,13.74,0Q27,0,40.37,0A13.41,13.41,0,0,1,54.09,13.71q0,13.32,0,26.63A13.35,13.35,0,0,1,40.42,54.06q-13.49.09-27,0A13.29,13.29,0,0,1,0,40.66C0,36.11,0,31.55,0,27Zm7.12.09c0,3.13,0,6.27,0,9.41A10.25,10.25,0,0,0,17.56,47q9.5.07,19,0A10.28,10.28,0,0,0,47,36.62q.09-9.58,0-19.18A10.33,10.33,0,0,0,36.51,7.13q-9.49-.06-19,0A10.28,10.28,0,0,0,7.14,17.49C7.1,20.69,7.13,23.88,7.13,27.08Z"/><path class="cls-1" d="M27.07,10.57h8.87c4.75,0,7.55,2.76,7.58,7.46,0,6,0,12.08,0,18.11,0,4.5-2.76,7.36-7.27,7.42q-9.24.13-18.47,0c-4.46-.07-7.24-3-7.26-7.48q-.06-9,0-17.93c0-4.8,2.88-7.56,7.68-7.56h8.88ZM16.79,27.13A10.26,10.26,0,1,0,27,16.79,10.27,10.27,0,0,0,16.79,27.13ZM39.9,16.38A2.4,2.4,0,0,0,37.59,14a2.37,2.37,0,0,0-.06,4.74A2.39,2.39,0,0,0,39.9,16.38Z"/><path class="cls-1" d="M27.11,33.84a6.8,6.8,0,0,1-.24-13.59,6.8,6.8,0,1,1,.24,13.59Z"/></g></g></svg>