<svg xmlns="http://www.w3.org/2000/svg" viewBox="0 0 54.18 54.09"><defs><style>.cls-1{fill:#230835;}</style></defs><g id="Layer_2" data-name="Layer 2"><g id="Layer_1-2" data-name="Layer 1"><path class="cls-1" d="M27.11,54.08c-4.26,0-8.53,0-12.79,0A14.09,14.09,0,0,1,0,39.77q0-12.71,0-25.4A14.09,14.09,0,0,1,14.46,0H39.69A14,14,0,0,1,54.14,14.33q.07,12.71,0,25.4A14,14,0,0,1,39.73,54.08C35.52,54.1,31.32,54.08,27.11,54.08ZM15,30.4H12.47c1.11,3.4,3.62,4.77,7,5.28C16.13,38.4,12.54,39,8.6,38.84c.28.37.32.49.42.54,14.66,7.8,31.8-.63,33.22-17.5a5.06,5.06,0,0,1,1.6-3.59,26,26,0,0,0,2.24-2.66l-.33-.33-3.41,1.05,2.27-3.6a4.16,4.16,0,0,0-1.94.48A3.58,3.58,0,0,1,38.51,13a8,8,0,0,0-12,4.85A30,30,0,0,0,26,21.12c-6.26-.42-11-3.65-15.38-7.83-1.66,3.88-1,7.17,2.42,10.34L9.8,22.77C9.57,26.31,10.9,28.13,15,30.4Z"/></g></g></svg>