<svg xmlns="http://www.w3.org/2000/svg" viewBox="0 0 54.09 54.08"><defs><style>.cls-1{fill:#230835;}</style></defs><g id="Layer_2" data-name="Layer 2"><g id="Layer_1-2" data-name="Layer 1"><path class="cls-1" d="M27.18,54.07c-4.26,0-8.53,0-12.79,0A14,14,0,0,1,0,39.67Q0,26.89,0,14.09A14,14,0,0,1,14.17,0H39.4c8.71,0,14.7,6,14.69,14.76,0,8.23,0,16.47,0,24.7,0,8.61-6,14.59-14.65,14.61ZM27,39.49h0c3.31,0,6.63.07,9.94,0a7.66,7.66,0,0,0,7.5-7.68q0-4.62,0-9.23a7.71,7.71,0,0,0-8-8q-9.41,0-18.82,0a7.73,7.73,0,0,0-8,7.63c-.12,3.19-.11,6.39,0,9.58a7.72,7.72,0,0,0,8.07,7.68C20.84,39.51,23.92,39.49,27,39.49Z"/><path class="cls-1" d="M23.51,32.71V21.37L32.86,27Z"/></g></g></svg>